<svg xmlns="http://www.w3.org/2000/svg" viewBox="0 0 840 560"><defs><style>.cls-1{fill:#fff;}.cls-2{fill:#424242;}</style></defs><g id="Layer_2" data-name="Layer 2"><g id="Layer_1-2" data-name="Layer 1"><rect class="cls-1" width="840" height="560"/></g><g id="university"><path class="cls-2" d="M158.39,272.41H309.75V246.24H175.33a8,8,0,0,0-6.18,3.39l-13.34,18.06A3.06,3.06,0,0,0,158.39,272.41Z"/><path class="cls-2" d="M672.1,267.69l-13.34-18.06a8,8,0,0,0-6.18-3.39H518.21v26.17H669.52A3,3,0,0,0,672.1,267.69Z"/><path class="cls-2" d="M664.42,283.13H518.21V355.6H664.42Zm-109.36,48.7H533.18V314.11A10.82,10.82,0,0,1,544,303.3h.26a10.82,10.82,0,0,1,10.81,10.81Zm42.69,0H575.87V314.11a10.82,10.82,0,0,1,10.81-10.81h.26a10.82,10.82,0,0,1,10.81,10.81Zm42.69,0H618.56V314.11a10.82,10.82,0,0,1,10.81-10.81h.25a10.83,10.83,0,0,1,10.82,10.81Z"/><path class="cls-2" d="M309.75,355.6V283.13H163.53V355.6Zm-36.9-41.49a10.82,10.82,0,0,1,10.81-10.81h.26a10.82,10.82,0,0,1,10.81,10.81v17.72H272.85Zm-42.69,0A10.82,10.82,0,0,1,241,303.3h.26A10.82,10.82,0,0,1,252,314.11v17.72H230.16Zm-42.69,0a10.83,10.83,0,0,1,10.82-10.81h.25a10.82,10.82,0,0,1,10.81,10.81v17.72H187.47Z"/><path class="cls-2" d="M317.19,194.64H510.72a3,3,0,0,0,1.24-5.87l-92.64-47.83v-35.7c5.46,4.27,14.41,9.14,23.62,5,8.94-4,15.13-3.88,18.63-3.15a2.89,2.89,0,0,0,3.45-2.85V80.4a2.86,2.86,0,0,0-2-2.76c-3.07-1-9.74-1.87-20.1,2.77-9.21,4.13-18.16-.74-23.62-5V66.13a5.37,5.37,0,1,0-10.73,0V141L316,188.77A3,3,0,0,0,317.19,194.64ZM414,154.43A13.47,13.47,0,1,1,400.5,167.9,13.47,13.47,0,0,1,414,154.43Z"/><path class="cls-2" d="M682.9,444.27H664.42V366.32H518.21v77.95H507.48V205.35h-187V444.27H309.75V366.32H163.53v77.95H145.1a5.37,5.37,0,0,0,0,10.73H682.9a5.37,5.37,0,0,0,0-10.73Zm-66.23-62.2a13.51,13.51,0,0,1,13.51,13.51v48.69h-27V395.58A13.51,13.51,0,0,1,616.67,382.07ZM546,395.58a13.54,13.54,0,0,1,27.07,0v48.69H546Zm-57.19,48.69h-29V381.38a14.48,14.48,0,0,1,29,0Zm-.56-101.67h-29V290.13a14.5,14.5,0,0,1,29,0Zm-31-110.91a13.54,13.54,0,1,1,27.07,0v21.75H457.2ZM437.51,444.27H390.62V390.35a23.45,23.45,0,0,1,46.89,0ZM400.57,231.69a13.54,13.54,0,1,1,27.07,0v21.75H400.57ZM390,299.09a23.47,23.47,0,0,1,46.93,0V342.6H390Zm-46.08-67.4a13.52,13.52,0,1,1,27,0v21.75h-27Zm-4.25,58.44a14.5,14.5,0,0,1,29,0V342.6h-29Zm.6,91.25a14.5,14.5,0,0,1,29,0v62.89h-29Zm-71.86.69a13.51,13.51,0,0,1,13.51,13.51v48.69H254.87V395.58A13.52,13.52,0,0,1,268.43,382.07Zm-70.7,13.51a13.52,13.52,0,0,1,27,0v48.69h-27Z"/></g></g></svg>